<svg xmlns="http://www.w3.org/2000/svg" width="58.138" height="58.139" viewBox="0 0 58.138 58.139">
  <path id="paper-plane-solid" d="M58.1,4.192,50.828,51.328a3.631,3.631,0,0,1-4.99,2.8l-13.922-5.8-5.775,8.663a2.254,2.254,0,0,1-1.976,1.155A2.36,2.36,0,0,1,21.8,55.784V44.863a3.63,3.63,0,0,1,.766-2.23L47.24,10.907,13.889,40.92,2.237,36.06A3.647,3.647,0,0,1,.008,32.835a3.532,3.532,0,0,1,1.824-3.381L52.7.487A3.63,3.63,0,0,1,58.1,4.192Z" transform="translate(-0.002 -0.007)" fill="#fa0" opacity="0.74"/>
</svg>
