<svg xmlns="http://www.w3.org/2000/svg" width="58" height="50.753" viewBox="0 0 58 50.753">
  <path id="react-brands" d="M47.374,48.46q-.918-.306-1.835-.578c.1-.419.193-.838.283-1.257,1.393-6.752.476-12.178-2.617-13.968-2.979-1.711-7.839.068-12.755,4.35-.487.419-.963.861-1.416,1.3-.306-.295-.623-.589-.94-.872-5.154-4.577-10.32-6.5-13.413-4.7-2.968,1.722-3.852,6.831-2.605,13.22.125.634.261,1.257.419,1.892-.725.2-1.439.43-2.107.668C4.339,50.612,0,53.92,0,57.341c0,3.534,4.622,7.08,10.909,9.232.51.17,1.02.34,1.541.487-.17.68-.317,1.348-.453,2.039-1.189,6.287-.261,11.271,2.707,12.982,3.059,1.767,8.2-.045,13.209-4.429.4-.351.793-.714,1.189-1.1.5.487,1.02.952,1.541,1.4,4.848,4.169,9.64,5.857,12.6,4.146C46.3,80.337,47.295,74.979,46,68.454q-.153-.748-.34-1.529c.362-.1.714-.215,1.065-.329C53.265,64.432,58,60.932,58,57.341,58,53.908,53.537,50.578,47.374,48.46ZM32.047,38.842c4.214-3.67,8.145-5.109,9.935-4.078,1.914,1.1,2.651,5.539,1.45,11.373-.079.385-.159.759-.261,1.133a57.992,57.992,0,0,0-7.624-1.2,57.235,57.235,0,0,0-4.826-6.015C31.164,39.635,31.594,39.238,32.047,38.842ZM18.941,63.22c.578.986,1.167,1.971,1.79,2.934a51.3,51.3,0,0,1-5.256-.85,52.919,52.919,0,0,1,1.846-5.041C17.842,61.26,18.374,62.246,18.941,63.22ZM15.508,49.592c1.631-.362,3.364-.657,5.166-.884-.6.94-1.189,1.9-1.745,2.877s-1.1,1.948-1.609,2.945c-.714-1.688-1.314-3.342-1.812-4.939Zm3.1,7.805c.748-1.563,1.563-3.093,2.424-4.6s1.79-2.968,2.764-4.407c1.7-.125,3.432-.193,5.2-.193s3.512.068,5.2.193q1.444,2.141,2.753,4.384t2.458,4.577q-1.138,2.345-2.447,4.622c-.861,1.507-1.779,2.968-2.741,4.418-1.688.125-3.444.181-5.222.181s-3.5-.057-5.166-.159Q22.356,64.257,21.048,62c-.872-1.507-1.677-3.036-2.436-4.6Zm20.459,5.8c.578-1,1.121-2.005,1.654-3.025a52.587,52.587,0,0,1,1.914,5.018,49.756,49.756,0,0,1-5.324.906c.612-.952,1.189-1.926,1.756-2.9ZM40.7,54.531c-.532-1-1.076-1.994-1.643-2.968s-1.133-1.914-1.733-2.855a52.131,52.131,0,0,1,5.2.906A50.134,50.134,0,0,1,40.7,54.531ZM29.023,41.787a49.745,49.745,0,0,1,3.353,4.055c-2.243-.1-4.5-.1-6.74,0C26.746,44.381,27.89,43.022,29.023,41.787ZM15.882,34.843c1.9-1.11,6.129.476,10.58,4.418.283.249.566.521.861.793a57.553,57.553,0,0,0-4.86,6.015,59.714,59.714,0,0,0-7.613,1.178c-.147-.578-.272-1.167-.4-1.756-1.065-5.483-.363-9.618,1.427-10.648ZM13.107,64.7c-.476-.136-.94-.283-1.4-.442a23.1,23.1,0,0,1-7.137-3.534,5.083,5.083,0,0,1-2.13-3.387c0-2.073,3.58-4.724,8.745-6.525.646-.227,1.3-.43,1.96-.623a60.237,60.237,0,0,0,2.775,7.2A61.922,61.922,0,0,0,13.107,64.7Zm13.209,11.1a20.734,20.734,0,0,1-6.389,4,5.014,5.014,0,0,1-4,.147c-1.8-1.042-2.549-5.041-1.529-10.422.125-.634.261-1.269.419-1.892a56.672,56.672,0,0,0,7.692,1.11A59.782,59.782,0,0,0,27.4,74.8c-.362.351-.725.691-1.087,1.008Zm2.775-2.753c-1.155-1.246-2.311-2.628-3.432-4.112,1.088.045,2.209.068,3.342.068,1.167,0,2.311-.023,3.444-.079A48.852,48.852,0,0,1,29.091,73.053Zm14.806,3.4A5.035,5.035,0,0,1,42.027,80c-1.8,1.042-5.641-.317-9.787-3.874-.476-.408-.952-.85-1.439-1.3a56.038,56.038,0,0,0,4.78-6.072,55.845,55.845,0,0,0,7.726-1.189c.113.464.215.929.306,1.382A20.65,20.65,0,0,1,43.9,76.451Zm2.062-12.178c-.317.1-.634.2-.963.295a57.548,57.548,0,0,0-2.889-7.227,57.259,57.259,0,0,0,2.775-7.125c.589.17,1.155.351,1.7.532,5.279,1.813,8.983,4.509,8.983,6.57C55.564,59.538,51.611,62.4,45.958,64.274ZM29,62.574a5.188,5.188,0,1,0-5.188-5.188A5.188,5.188,0,0,0,29,62.574Z" transform="translate(0 -32.013)" fill="#ffec00"/>
</svg>
