<svg xmlns="http://www.w3.org/2000/svg" width="50" height="48.487" viewBox="0 0 50 48.487">
  <path id="star-regular" d="M49,0a2.272,2.272,0,0,1,2.046,1.281l6.5,13.382,14.52,2.15a2.267,2.267,0,0,1,1.269,3.855L62.8,31.106l2.491,14.729a2.278,2.278,0,0,1-3.315,2.387L49,41.288,35.944,48.222a2.161,2.161,0,0,1-2.321-.161,2.53,2.53,0,0,1-.995-2.226L35.2,31.106,24.673,20.668a2.266,2.266,0,0,1,1.267-3.855l14.512-2.15,6.5-13.382A2.283,2.283,0,0,1,49,0Zm0,7.478L44.023,17.731a2.311,2.311,0,0,1-1.714,1.26L31.1,20.639,39.24,28.7a2.292,2.292,0,0,1,.635,2L37.961,42.027,47.926,36.7a2.257,2.257,0,0,1,2.141,0l9.964,5.323L58.118,30.7a2.3,2.3,0,0,1,.644-2L66.9,20.639,55.693,18.991a2.279,2.279,0,0,1-1.714-1.26Z" transform="translate(-24)" fill="#ff4500"/>
</svg>
